<?xml version="1.0" standalone="no"?>
<!DOCTYPE svg PUBLIC "-//W3C//DTD SVG 20010904//EN"
 "http://www.w3.org/TR/2001/REC-SVG-20010904/DTD/svg10.dtd">
<svg version="1.0" xmlns="http://www.w3.org/2000/svg"
 width="1214.000000pt" height="1244.000000pt" viewBox="0 0 1214.000000 1244.000000"
 preserveAspectRatio="xMidYMid meet">

<g transform="translate(0.000000,1244.000000) scale(0.100000,-0.100000)"
fill="#000000" stroke="none">
<path d="M6580 11144 c-57 -11 -136 -51 -177 -92 -61 -59 -123 -156 -123 -192
0 -11 -4 -20 -10 -20 -5 0 -10 -17 -10 -38 0 -21 -4 -42 -8 -47 -5 -6 -14 -30
-21 -55 -7 -25 -17 -54 -21 -65 -24 -65 -50 -156 -50 -178 0 -14 -4 -29 -10
-32 -5 -3 -10 -17 -10 -31 0 -13 -4 -33 -10 -44 -5 -11 -14 -29 -20 -40 -5
-11 -10 -29 -10 -39 0 -11 -4 -23 -10 -26 -5 -3 -10 -22 -10 -41 0 -19 -4 -42
-9 -52 -5 -9 -14 -37 -21 -62 -7 -25 -16 -53 -21 -62 -5 -10 -9 -27 -9 -38 0
-11 -4 -28 -9 -38 -5 -9 -15 -37 -21 -62 -7 -25 -16 -54 -20 -65 -5 -11 -11
-32 -14 -47 -3 -16 -9 -40 -12 -55 -3 -16 -9 -37 -14 -48 -4 -11 -13 -40 -20
-65 -6 -25 -16 -53 -21 -62 -5 -10 -9 -29 -9 -42 0 -14 -4 -28 -10 -31 -5 -3
-10 -17 -10 -31 0 -13 -4 -24 -10 -24 -5 0 -10 -13 -10 -29 0 -17 -4 -32 -9
-35 -5 -3 -11 -23 -14 -43 -9 -66 -23 -118 -40 -153 -9 -18 -17 -41 -17 -51 0
-10 -4 -28 -9 -41 -5 -13 -14 -43 -21 -68 -27 -97 -33 -116 -41 -132 -5 -10
-9 -29 -9 -42 0 -14 -4 -28 -10 -31 -5 -3 -10 -17 -10 -30 0 -13 -4 -27 -10
-30 -6 -4 -10 -57 -10 -125 l0 -119 42 -83 c50 -99 135 -188 181 -188 31 0 31
8 -5 104 -10 28 -18 65 -18 81 0 17 -5 36 -11 42 -25 25 12 360 42 379 5 3 9
16 9 30 0 13 5 24 10 24 6 0 10 9 10 20 0 11 5 20 10 20 6 0 10 7 10 15 0 17
18 51 37 72 6 7 15 22 18 33 3 11 11 20 16 20 5 0 9 6 9 13 0 7 8 22 18 33 10
10 29 39 42 64 14 25 33 54 43 64 9 11 17 24 17 28 0 5 9 18 20 30 11 12 20
28 20 35 0 7 5 13 10 13 6 0 10 5 10 11 0 12 60 103 72 107 4 2 8 11 8 21 0 9
9 23 20 31 11 8 20 20 20 28 0 7 8 22 19 33 10 11 29 40 41 64 13 25 27 45 32
45 4 0 8 6 8 13 0 7 9 23 20 35 11 12 20 24 20 27 0 7 59 96 69 105 3 3 17 25
31 50 13 25 32 54 42 64 10 11 18 26 18 33 0 7 5 13 10 13 6 0 10 6 10 13 0 7
8 22 18 33 16 18 25 33 56 88 6 11 19 29 29 40 9 11 17 25 17 31 0 6 9 17 20
25 11 8 20 22 20 32 0 10 5 18 10 18 6 0 10 5 10 11 0 9 55 97 69 109 3 3 17
25 31 50 13 25 32 54 42 64 10 11 18 26 18 33 0 7 4 13 8 13 5 0 15 12 23 28
13 26 49 82 59 92 3 3 10 14 16 25 27 50 39 70 44 75 3 3 17 21 30 40 13 19
27 37 30 40 35 34 60 69 55 82 -3 8 -28 21 -56 28 -28 8 -52 18 -55 22 -3 4
-16 8 -30 8 -13 0 -24 5 -24 10 0 6 -13 10 -30 10 -16 0 -30 4 -30 8 0 4 -21
14 -47 21 -27 8 -55 18 -63 22 -8 4 -35 13 -60 20 -25 7 -50 17 -57 22 -14 10
-154 18 -193 11z m124 -261 c4 -9 4 -99 0 -200 l-7 -183 -24 0 c-30 0 -57 25
-49 46 10 26 -10 50 -53 64 -38 12 -43 12 -64 -8 -24 -23 -71 -29 -82 -11 -8
12 13 69 26 69 4 0 10 9 14 19 3 11 19 34 36 52 16 17 29 34 29 39 0 4 11 20
25 36 14 16 25 33 25 37 0 4 10 19 23 32 27 30 91 35 101 8z"/>
<path d="M6592 10740 c-17 -27 -15 -57 4 -64 35 -13 60 44 32 72 -16 16 -21
15 -36 -8z"/>
<path d="M5480 11106 c-76 -20 -112 -41 -164 -92 -54 -53 -116 -149 -116 -179
0 -12 -6 -27 -12 -34 -17 -16 -13 -2427 4 -2481 17 -53 37 -98 51 -112 6 -7
25 -30 40 -50 15 -21 33 -38 39 -38 6 0 18 -8 27 -18 36 -39 171 -81 171 -53
0 8 -33 54 -57 79 -7 7 -20 30 -30 50 -9 20 -19 39 -22 42 -12 11 -31 50 -31
65 0 8 -4 15 -10 15 -5 0 -10 10 -10 23 0 12 -9 47 -20 77 -17 45 -20 80 -20
199 0 80 4 158 9 175 5 17 15 51 21 76 7 25 16 53 21 62 5 10 9 25 9 34 0 15
32 123 51 169 4 11 10 31 12 45 12 55 42 155 50 158 4 2 7 13 7 25 0 12 9 47
20 77 11 30 20 65 20 77 0 12 5 25 10 28 6 3 10 22 10 41 0 19 5 34 10 34 6 0
10 13 10 29 0 17 5 33 10 36 6 3 10 17 10 31 0 13 5 24 10 24 6 0 10 15 10 34
0 19 5 38 10 41 6 3 10 15 10 26 0 18 48 178 71 234 4 11 10 32 13 48 3 15 9
39 12 55 3 15 9 36 14 47 4 11 14 40 21 65 7 25 16 49 21 54 4 6 8 22 8 37 0
15 5 31 10 34 6 3 10 22 10 41 0 19 4 42 9 52 5 9 19 51 31 92 12 41 26 84 30
95 4 11 13 40 20 65 7 25 16 55 21 68 5 13 9 34 9 47 0 13 5 27 10 30 6 3 10
15 10 26 0 11 9 39 20 61 11 23 20 50 20 59 0 10 5 21 10 24 6 3 10 19 10 36
l0 29 -247 -1 c-156 -1 -265 -6 -293 -13z m-40 -295 c0 -61 2 -70 20 -76 12
-4 27 -1 35 5 17 14 45 68 45 87 0 7 5 13 10 13 6 0 10 6 10 14 0 28 74 37 84
10 5 -14 -18 -69 -35 -84 -18 -16 -52 -92 -44 -98 11 -8 24 -29 67 -111 33
-63 34 -68 9 -76 -42 -13 -71 5 -97 62 -27 61 -45 83 -67 83 -25 0 -36 -24
-39 -85 -3 -59 -3 -60 -33 -60 l-30 0 -3 170 c-3 205 -2 215 38 215 l30 0 0
-69z"/>
<path d="M4815 10830 c-3 -5 -17 -10 -31 -10 -13 0 -24 -4 -24 -10 0 -5 -11
-10 -25 -10 -14 0 -33 -4 -43 -9 -33 -17 -67 -30 -137 -53 -38 -13 -71 -26
-73 -30 -2 -5 -14 -8 -27 -8 -13 0 -27 -4 -30 -10 -3 -5 -15 -10 -26 -10 -10
0 -19 -4 -19 -10 0 -5 -9 -10 -20 -10 -11 0 -20 -4 -20 -9 0 -5 -9 -12 -20
-16 -25 -8 -100 -84 -100 -101 0 -7 -3 -14 -7 -16 -14 -6 -53 -85 -53 -106 0
-12 -4 -24 -10 -27 -13 -8 -13 -198 -1 -239 5 -17 15 -51 22 -76 7 -25 16 -49
21 -55 4 -5 8 -21 8 -36 0 -15 5 -31 10 -34 6 -3 10 -15 10 -27 0 -21 36 -140
51 -170 5 -10 9 -31 9 -47 0 -17 5 -33 10 -36 6 -3 10 -19 10 -35 0 -16 5 -32
10 -35 6 -3 10 -17 10 -31 0 -13 5 -24 10 -24 6 0 10 -10 10 -21 0 -12 9 -49
19 -83 11 -33 34 -108 51 -166 18 -58 36 -113 41 -122 5 -10 9 -34 9 -53 0
-19 5 -35 10 -35 6 0 10 -11 10 -25 0 -14 4 -33 9 -43 8 -16 34 -101 62 -202
18 -69 31 -113 39 -135 25 -67 50 -156 50 -174 0 -11 5 -21 10 -21 6 0 10 -18
10 -40 0 -22 5 -40 10 -40 6 0 10 -11 10 -25 0 -14 5 -35 12 -48 25 -49 28
-58 28 -85 0 -15 4 -32 8 -38 5 -5 15 -35 22 -67 7 -32 17 -60 22 -63 4 -3 8
-14 8 -25 0 -19 20 -67 51 -119 20 -35 119 -130 135 -130 8 0 14 -4 14 -10 0
-5 9 -10 20 -10 11 0 20 -4 20 -10 0 -5 15 -10 33 -10 17 0 48 -5 67 -10 24
-7 49 -7 83 1 52 12 58 22 25 40 -13 7 -25 15 -28 18 -3 4 -21 18 -40 31 -39
27 -140 126 -140 138 0 5 -8 17 -17 28 -10 11 -23 29 -29 40 -38 67 -67 129
-75 159 -5 19 -14 52 -20 73 -24 80 -28 266 -24 1047 4 690 7 1480 5 1523 0
14 -36 16 -45 2z m-279 -345 c4 -8 2 -21 -4 -28 -11 -13 -21 -59 -29 -127 -4
-41 -2 -47 20 -59 14 -7 35 -26 46 -42 12 -16 26 -29 32 -29 15 0 39 -26 39
-42 0 -22 -22 -38 -49 -38 -17 0 -41 16 -70 45 -80 80 -116 72 -83 -20 12 -31
18 -63 16 -70 -7 -17 -54 -29 -66 -17 -13 13 -48 114 -48 139 0 12 -4 24 -8
27 -4 3 -14 28 -22 56 -8 28 -18 53 -22 56 -12 8 -9 59 4 72 7 7 22 12 34 12
18 0 25 -10 40 -56 15 -50 36 -75 50 -62 2 3 11 36 18 74 17 88 22 99 49 112
31 15 47 14 53 -3z"/>
<path d="M7625 10792 c-6 -4 -28 -14 -50 -21 -37 -13 -116 -61 -140 -86 -6 -5
-22 -26 -35 -45 -13 -19 -32 -44 -42 -54 -10 -11 -18 -26 -18 -33 0 -7 -4 -13
-10 -13 -5 0 -10 -6 -10 -13 0 -7 -8 -22 -17 -33 -10 -10 -24 -31 -32 -46 -8
-16 -18 -28 -23 -28 -4 0 -8 -9 -8 -20 0 -11 -4 -20 -9 -20 -5 0 -14 -13 -21
-30 -7 -16 -16 -30 -20 -30 -4 0 -13 -13 -20 -30 -7 -16 -16 -30 -20 -30 -4 0
-13 -13 -20 -30 -7 -16 -15 -30 -19 -30 -3 0 -17 -21 -31 -47 -13 -27 -27 -50
-30 -53 -14 -12 -70 -99 -70 -109 0 -6 -4 -11 -9 -11 -5 0 -14 -13 -21 -30 -7
-16 -15 -30 -19 -30 -3 0 -17 -21 -31 -47 -13 -27 -31 -55 -40 -63 -16 -16
-30 -39 -64 -105 -12 -22 -29 -47 -38 -56 -10 -9 -18 -21 -18 -26 0 -5 -8 -18
-17 -29 -23 -25 -53 -74 -60 -96 -3 -10 -9 -18 -13 -18 -4 0 -13 -13 -20 -30
-7 -16 -16 -30 -20 -30 -4 0 -13 -13 -20 -30 -7 -16 -16 -30 -21 -30 -5 0 -9
-4 -9 -10 0 -9 -107 -180 -130 -207 -5 -7 -10 -16 -10 -21 0 -4 -8 -17 -18
-28 -10 -10 -29 -39 -42 -64 -14 -25 -30 -51 -37 -58 -6 -6 -15 -21 -18 -32
-3 -11 -10 -20 -14 -20 -4 0 -18 -20 -31 -45 -12 -24 -31 -53 -41 -64 -11 -11
-19 -27 -19 -36 0 -8 -4 -15 -9 -15 -9 0 -14 -18 -33 -105 -22 -108 -9 -227
37 -315 27 -53 165 -200 187 -200 6 0 18 -8 27 -18 9 -10 32 -29 51 -42 19
-13 41 -30 48 -37 8 -7 30 -26 50 -41 21 -15 48 -37 62 -49 14 -13 28 -23 32
-23 4 0 17 -10 30 -23 13 -12 39 -33 58 -47 19 -13 49 -37 65 -52 17 -15 34
-28 39 -28 5 0 16 -8 25 -18 9 -10 32 -29 51 -42 19 -13 41 -30 48 -37 8 -7
30 -26 50 -41 21 -15 39 -29 42 -32 3 -3 21 -17 40 -30 19 -13 49 -37 65 -52
17 -15 34 -28 39 -28 5 0 16 -8 25 -18 9 -10 32 -29 51 -42 19 -14 45 -34 57
-47 12 -12 32 -24 43 -28 11 -3 20 -15 20 -26 0 -19 -41 -19 -2985 -19 -2562
0 -2986 2 -2991 14 -3 8 8 43 24 78 17 34 36 78 43 96 8 17 17 32 21 32 5 0 8
5 8 12 0 6 10 25 23 42 13 17 30 45 38 61 27 53 44 79 62 96 9 9 17 20 17 23
0 8 59 97 70 106 3 3 17 21 30 40 13 19 37 47 52 62 15 14 28 30 28 36 0 5 17
27 38 49 20 22 62 68 92 104 30 35 68 76 85 91 33 30 32 29 90 89 22 23 56 53
75 68 19 14 49 40 67 57 17 18 49 45 70 60 21 16 45 36 53 44 8 9 31 27 50 40
19 14 44 32 54 42 11 10 24 18 28 18 5 0 20 11 34 25 14 14 29 25 33 25 4 0
21 11 37 25 16 14 33 25 37 25 4 0 17 9 29 20 12 11 28 20 35 20 7 0 13 4 13
9 0 5 13 14 30 21 17 7 30 15 30 19 0 4 22 18 50 32 27 13 50 27 50 30 0 4 13
12 30 19 17 7 30 16 30 21 0 5 9 9 19 9 11 0 21 4 23 8 2 5 46 31 98 59 52 27
104 54 115 60 97 53 175 83 192 74 25 -13 53 -48 53 -66 0 -8 5 -15 10 -15 6
0 10 -6 10 -12 0 -7 14 -29 30 -48 16 -19 30 -41 30 -47 0 -7 5 -13 10 -13 6
0 10 -6 10 -13 0 -7 8 -22 18 -33 16 -19 23 -30 55 -86 6 -13 20 -30 30 -39 9
-9 17 -22 17 -28 0 -7 9 -21 20 -33 11 -12 20 -28 20 -35 0 -7 5 -13 10 -13 6
0 10 -6 10 -13 0 -7 8 -22 18 -33 16 -19 29 -39 56 -89 6 -11 14 -22 17 -25
14 -12 69 -100 69 -109 0 -6 5 -11 10 -11 6 0 10 -6 10 -12 0 -7 11 -26 25
-42 13 -16 27 -37 30 -47 4 -11 11 -19 16 -19 5 0 9 -9 9 -20 0 -11 5 -20 10
-20 6 0 10 -6 10 -12 0 -7 14 -29 30 -48 16 -19 30 -41 30 -47 0 -7 5 -13 10
-13 6 0 10 -6 10 -13 0 -7 8 -22 18 -33 9 -10 23 -31 31 -46 8 -16 18 -28 23
-28 4 0 8 -5 8 -11 0 -5 18 -37 40 -69 22 -32 40 -62 40 -65 0 -3 9 -15 20
-27 11 -12 20 -28 20 -35 0 -7 5 -13 10 -13 6 0 10 -6 10 -13 0 -7 9 -23 20
-35 11 -12 20 -26 20 -33 0 -6 8 -19 18 -28 9 -9 23 -26 30 -39 6 -12 18 -32
25 -44 6 -13 14 -25 17 -28 3 -3 17 -21 30 -40 31 -44 56 -69 100 -100 19 -13
37 -27 40 -30 16 -19 95 -31 185 -28 123 4 129 16 30 67 -38 19 -72 38 -75 41
-3 3 -25 21 -50 40 -58 45 -80 67 -110 110 -13 19 -30 41 -38 49 -7 7 -21 31
-30 52 -9 22 -20 39 -24 39 -5 0 -8 7 -8 15 0 8 -4 23 -9 33 -16 31 -29 66
-40 102 -36 129 -54 187 -62 202 -5 10 -9 26 -9 36 0 9 -9 42 -20 72 -11 30
-20 65 -20 77 0 12 -4 25 -10 28 -5 3 -10 19 -10 34 0 15 -4 31 -8 37 -5 5
-14 29 -21 54 -7 25 -17 53 -22 62 -5 10 -9 31 -9 47 0 17 -4 33 -10 36 -6 3
-10 15 -10 26 0 27 -23 99 -32 99 -5 0 -8 15 -8 34 0 19 -4 38 -10 41 -6 3
-10 16 -10 28 0 12 -9 47 -20 77 -11 30 -20 63 -20 72 0 10 -4 26 -9 36 -15
30 -51 149 -51 170 0 12 -4 24 -10 27 -5 3 -10 19 -10 34 0 15 -3 31 -7 35
-11 10 -33 79 -33 103 0 12 -4 25 -10 28 -5 3 -10 19 -10 36 0 16 -4 37 -9 47
-5 9 -15 37 -21 62 -22 80 -34 115 -42 124 -4 6 -8 19 -8 31 0 11 -9 45 -20
75 -11 30 -20 63 -20 72 0 10 -4 26 -9 36 -26 50 -56 179 -68 295 -4 47 -9 57
-24 57 -11 0 -19 -4 -19 -8 0 -4 -13 -15 -29 -25 -15 -9 -46 -32 -67 -52 -21
-19 -43 -35 -47 -35 -4 0 -19 -11 -33 -25 -14 -14 -28 -25 -32 -25 -4 0 -23
-14 -42 -31 -19 -17 -51 -43 -70 -58 -73 -54 -160 -153 -160 -183 0 -7 -7 -21
-15 -31 -13 -18 -15 -18 -49 -2 -20 10 -36 21 -36 25 0 4 -13 13 -30 20 -16 7
-30 15 -30 19 0 4 -22 18 -50 32 -27 13 -50 27 -50 32 0 4 -9 7 -20 7 -11 0
-20 3 -20 8 0 8 -49 32 -67 32 -7 0 -13 5 -13 10 0 6 -7 10 -15 10 -8 0 -30 9
-50 20 -20 11 -44 20 -55 20 -11 0 -20 5 -20 10 0 6 -11 10 -25 10 -14 0 -33
4 -43 9 -48 25 -81 34 -157 47 -16 3 -39 9 -50 14 -11 5 -42 11 -70 14 -27 2
-90 10 -140 17 -183 26 -497 7 -680 -40 -22 -5 -53 -13 -70 -16 -16 -4 -39
-10 -50 -15 -11 -4 -54 -18 -95 -31 -41 -13 -101 -36 -133 -51 -31 -16 -64
-28 -72 -28 -8 0 -15 -3 -15 -7 0 -5 -32 -24 -70 -43 -39 -19 -70 -38 -70 -42
0 -5 -6 -8 -12 -8 -7 0 -26 -11 -42 -25 -16 -14 -32 -25 -36 -25 -4 0 -18 -10
-31 -21 -13 -12 -40 -33 -59 -48 -49 -36 -231 -219 -260 -261 -13 -19 -32 -44
-42 -54 -10 -11 -18 -26 -18 -33 0 -7 -3 -13 -8 -13 -4 0 -18 -21 -32 -47 -13
-27 -27 -50 -30 -53 -12 -11 -30 -51 -30 -65 0 -8 -4 -15 -10 -15 -5 0 -10
-13 -10 -30 0 -16 -4 -30 -8 -30 -5 0 -15 -23 -22 -51 -8 -27 -18 -52 -22 -55
-4 -3 -8 -16 -8 -29 0 -13 -4 -26 -9 -29 -16 -11 -24 -113 -24 -316 0 -197 5
-262 22 -305 5 -11 14 -38 20 -60 13 -41 27 -77 42 -107 5 -10 9 -24 9 -33 0
-8 11 -34 25 -57 14 -24 33 -60 42 -80 10 -21 21 -38 25 -38 5 0 8 -6 8 -14 0
-7 13 -27 30 -44 16 -18 30 -36 30 -40 0 -5 8 -17 18 -28 10 -10 26 -30 35
-44 25 -37 144 -157 186 -188 19 -15 49 -39 65 -55 16 -15 33 -27 39 -27 5 0
17 -8 26 -18 9 -10 36 -29 61 -43 25 -13 47 -27 50 -30 3 -3 25 -16 50 -30 25
-13 47 -27 48 -31 2 -5 14 -8 26 -8 26 0 69 -37 61 -51 -4 -5 -137 -9 -326 -9
l-319 0 0 -396 c0 -329 2 -398 14 -410 12 -11 55 -14 220 -14 l206 0 1 -137
c1 -215 3 -237 16 -250 8 -10 65 -13 215 -13 145 0 207 -3 216 -12 8 -8 12
-67 12 -199 l0 -186 52 -7 c28 -4 119 -6 202 -6 83 1 159 -1 169 -5 15 -6 17
-25 17 -189 1 -135 4 -185 14 -198 12 -17 99 -18 1569 -18 l1557 0 5 23 c2 12
6 102 7 199 2 97 7 180 11 184 4 4 92 9 195 9 103 1 199 3 214 4 l28 1 2 198
3 197 215 3 c156 2 216 6 222 15 4 6 8 184 8 394 0 210 3 388 6 397 5 14 54
16 445 16 l438 0 10 -37 c7 -23 11 -183 11 -410 l0 -373 218 -2 217 -3 3 -197
2 -198 33 -2 c17 -1 112 -2 209 -2 131 -1 180 -4 190 -14 9 -9 14 -62 16 -195
2 -108 8 -187 14 -194 8 -10 273 -13 1328 -13 725 0 1325 3 1334 6 14 5 16 31
16 188 0 136 3 187 13 200 12 17 33 19 218 20 112 0 210 5 217 9 9 6 12 58 12
203 l0 194 220 0 220 0 2 198 3 197 209 3 c178 2 213 5 228 19 17 15 18 42 18
398 0 283 -3 384 -12 393 -9 9 -103 12 -360 12 -316 0 -348 2 -348 16 0 21 29
43 57 44 12 0 23 3 25 8 3 6 55 36 115 66 13 6 23 14 23 19 0 4 6 7 14 7 7 0
27 14 44 30 18 17 36 30 42 30 5 0 29 18 51 40 23 22 45 40 50 40 12 0 152
142 180 183 13 17 31 39 41 48 10 9 18 20 18 25 0 5 14 25 30 44 16 19 30 41
30 48 0 6 4 12 8 12 5 0 32 51 61 113 29 61 57 120 62 129 5 10 9 27 9 38 0
11 4 20 9 20 5 0 11 15 14 33 4 17 12 59 19 92 15 75 16 440 0 510 -6 28 -14
64 -17 80 -4 17 -10 39 -14 50 -10 26 -31 82 -45 123 -6 17 -14 32 -18 32 -5
0 -8 9 -8 20 0 11 -4 20 -10 20 -5 0 -10 9 -10 20 0 11 -4 20 -10 20 -5 0 -10
9 -10 20 0 11 -4 20 -10 20 -5 0 -10 6 -10 13 0 7 -9 23 -20 35 -11 12 -20 25
-20 29 0 4 -14 24 -30 43 -16 19 -30 38 -30 43 0 4 -24 32 -52 62 -29 29 -65
66 -79 82 -26 28 -82 77 -149 130 -19 15 -41 34 -48 40 -7 7 -17 13 -22 13 -5
0 -20 11 -34 25 -14 14 -32 25 -41 25 -8 0 -15 3 -15 8 0 4 -10 12 -23 18 -60
30 -194 96 -209 105 -10 5 -25 9 -33 9 -8 0 -15 4 -15 8 0 4 -21 14 -47 21
-27 8 -55 18 -63 21 -29 14 -87 30 -108 30 -11 0 -24 5 -27 10 -3 6 -21 10
-39 10 -17 0 -36 4 -42 9 -5 5 -34 12 -64 15 -30 3 -98 11 -150 17 -129 16
-282 16 -420 0 -63 -7 -135 -15 -160 -18 -25 -3 -49 -9 -54 -14 -6 -5 -27 -9
-47 -9 -21 0 -41 -4 -44 -10 -3 -5 -19 -10 -35 -10 -16 0 -32 -4 -35 -10 -3
-5 -17 -10 -30 -10 -13 0 -27 -4 -30 -10 -3 -5 -19 -10 -36 -10 -16 0 -29 -3
-29 -8 0 -4 -16 -13 -35 -20 -19 -6 -51 -18 -70 -24 -19 -7 -35 -16 -35 -20 0
-5 -9 -8 -20 -8 -11 0 -20 -4 -20 -10 0 -5 -7 -10 -15 -10 -14 0 -53 -18 -65
-30 -3 -3 -25 -16 -50 -30 -25 -13 -54 -32 -64 -42 -11 -10 -26 -18 -33 -18
-7 0 -13 -4 -13 -8 0 -5 -11 -15 -25 -22 -24 -13 -28 -11 -83 46 -31 33 -73
71 -92 84 -19 13 -37 27 -40 30 -3 3 -21 17 -42 32 -20 15 -42 34 -50 41 -7 7
-29 24 -48 37 -19 13 -37 27 -40 30 -3 3 -21 17 -42 32 -20 15 -42 33 -50 40
-7 7 -34 29 -58 48 -25 19 -46 38 -48 42 -2 4 -9 8 -16 8 -7 0 -26 12 -42 28
-16 15 -45 38 -64 52 -19 13 -42 31 -50 40 -8 9 -31 27 -50 40 -19 14 -46 35
-60 47 -14 13 -28 23 -31 23 -3 0 -17 10 -30 21 -13 12 -40 33 -59 48 -19 14
-46 36 -60 49 -14 13 -37 31 -52 40 -16 9 -28 20 -28 24 0 4 -6 8 -12 8 -7 0
-26 12 -43 28 -28 25 -78 53 -148 81 -32 13 -158 15 -172 3z m133 -212 c23
-22 28 -45 13 -54 -5 -3 -11 -20 -14 -38 -9 -52 -18 -91 -26 -113 -16 -40 -31
-92 -31 -106 0 -8 -6 -27 -12 -42 -10 -21 -19 -27 -38 -25 -23 3 -25 8 -28 57
-2 29 -9 59 -15 65 -35 31 -87 47 -87 26 0 -15 -66 -12 -79 4 -15 18 -7 37 26
61 28 21 164 134 198 165 27 25 66 24 93 0z m-4140 -832 c3 -85 3 -87 32 -100
17 -7 30 -16 30 -20 0 -5 6 -8 13 -8 18 0 67 -24 67 -32 0 -5 9 -8 20 -8 15 0
20 -7 20 -25 0 -47 -71 -55 -130 -15 -34 23 -57 30 -75 24 -17 -7 -21 -44 -5
-44 6 0 10 -6 10 -13 0 -7 9 -23 20 -35 23 -24 25 -43 8 -60 -9 -9 -18 -6 -40
15 -15 15 -28 30 -28 35 0 4 -18 27 -40 49 -22 23 -40 46 -40 51 0 6 -13 22
-28 36 -49 46 -65 78 -52 101 7 14 21 21 39 21 23 0 31 -7 46 -40 16 -34 23
-41 44 -38 18 2 25 8 21 18 -2 8 -6 43 -8 78 -4 71 14 105 52 100 19 -3 21
-11 24 -90z m4430 -120 c7 -7 12 -24 12 -39 0 -15 5 -31 10 -34 6 -3 10 -15
10 -26 0 -10 4 -27 9 -37 9 -16 38 -114 60 -197 6 -22 12 -65 15 -95 3 -30 9
-94 15 -141 11 -104 -10 -372 -30 -385 -5 -3 -9 -16 -9 -30 0 -13 -4 -24 -9
-24 -5 0 -11 -8 -14 -17 -15 -48 -71 -122 -126 -166 -38 -31 -156 -77 -196
-77 -21 0 -73 16 -122 37 -64 27 -153 134 -153 183 0 30 -34 25 -51 -7 -8 -16
-16 -30 -19 -33 -12 -12 -30 -51 -30 -64 0 -8 -3 -16 -7 -18 -5 -1 -16 -16
-25 -33 -32 -57 -62 -56 -126 5 -15 14 -40 31 -55 39 -35 18 -36 53 -2 87 14
14 25 29 25 34 0 5 10 20 23 32 35 37 67 86 67 103 0 11 -11 15 -40 15 -22 0
-40 4 -40 9 0 5 -12 11 -27 14 -37 8 -94 53 -140 110 -39 49 -77 172 -70 228
11 85 19 119 28 119 5 0 9 9 9 19 0 45 129 221 162 221 6 0 18 8 27 18 9 9 30
24 46 32 17 8 42 22 57 32 14 10 36 18 47 18 12 0 21 5 21 10 0 6 11 10 25 10
14 0 33 4 43 9 31 16 88 31 118 32 16 0 38 4 49 9 32 14 399 12 413 -2z m1012
-478 c0 -5 6 -10 14 -10 17 0 100 -42 104 -52 2 -5 12 -8 22 -8 10 0 20 -3 22
-7 2 -5 23 -19 48 -32 122 -65 154 -82 180 -101 15 -11 33 -20 39 -20 6 0 11
-4 11 -10 0 -5 4 -10 10 -10 13 0 129 -74 157 -100 12 -11 29 -20 38 -20 8 0
15 -3 15 -8 0 -4 18 -18 40 -32 22 -14 40 -28 40 -32 0 -4 9 -9 19 -13 11 -3
36 -21 57 -40 21 -19 42 -35 47 -35 5 0 17 -8 26 -18 9 -10 36 -33 61 -52 25
-19 56 -46 70 -60 14 -14 48 -43 75 -65 60 -48 286 -275 324 -325 14 -19 36
-45 48 -57 12 -12 34 -40 50 -60 15 -21 33 -44 40 -51 7 -7 20 -26 30 -42 9
-17 21 -30 25 -30 4 0 8 -6 8 -12 0 -7 14 -29 30 -48 16 -19 30 -41 30 -47 0
-7 5 -13 10 -13 6 0 10 -6 10 -13 0 -7 8 -22 18 -33 22 -25 52 -74 59 -96 3
-10 9 -18 14 -18 5 0 9 -9 9 -19 0 -11 3 -21 8 -23 11 -5 72 -124 72 -142 0
-9 5 -16 10 -16 6 0 10 -13 10 -30 l0 -30 -1565 0 c-1370 0 -1566 2 -1571 15
-6 16 7 32 49 59 15 10 27 22 27 28 0 5 11 20 24 33 14 13 27 34 31 45 3 11
11 20 16 20 5 0 9 5 9 11 0 5 18 37 40 69 22 32 40 64 40 69 0 6 4 11 8 11 5
0 15 12 23 28 8 15 22 36 32 46 9 11 17 26 17 33 0 7 5 13 10 13 6 0 10 9 10
20 0 11 4 20 8 20 5 0 15 12 23 28 8 15 22 34 31 43 10 9 18 24 18 33 0 9 4
16 8 16 5 0 15 12 23 28 8 15 22 36 32 46 9 11 17 26 17 33 0 7 5 13 10 13 6
0 10 6 10 13 0 7 8 22 18 33 16 19 23 31 55 87 6 12 14 24 17 27 3 3 20 28 38
55 17 28 36 55 42 62 5 7 10 16 10 21 0 4 8 17 18 28 10 10 29 39 42 64 14 25
31 51 38 58 6 7 12 17 12 21 0 4 11 21 25 37 14 16 25 35 25 42 0 6 5 12 10
12 6 0 10 5 10 11 0 9 55 97 69 109 3 3 17 25 31 50 13 25 32 54 42 64 10 11
18 26 18 33 0 7 4 13 9 13 5 0 14 14 21 30 7 17 16 30 21 30 5 0 9 5 9 11 0 5
18 37 40 69 22 32 40 62 40 65 0 3 6 12 13 20 14 16 47 20 47 5z"/>
<path d="M7633 10458 c-36 -25 -41 -42 -19 -64 20 -20 31 -18 50 11 16 25 22
75 8 75 -4 0 -22 -10 -39 -22z"/>
<path d="M6140 5890 c-8 -5 -32 -10 -52 -10 -20 0 -40 -4 -43 -10 -3 -5 -17
-10 -30 -10 -13 0 -27 -4 -30 -10 -3 -5 -15 -10 -26 -10 -10 0 -19 -4 -19 -10
0 -5 -9 -10 -19 -10 -11 0 -21 -3 -23 -7 -1 -5 -20 -21 -40 -36 -21 -15 -38
-33 -38 -38 0 -6 -7 -17 -15 -25 -8 -8 -19 -33 -25 -54 -11 -42 -3 -140 11
-140 5 0 9 -7 9 -16 0 -19 87 -104 107 -104 7 0 13 -4 13 -10 0 -5 9 -10 19
-10 11 0 21 -4 23 -8 2 -4 37 -19 78 -32 63 -20 96 -24 210 -24 125 -1 175 6
245 34 71 29 85 36 85 42 0 5 7 8 16 8 8 0 39 24 68 54 66 66 84 122 65 198
-7 26 -16 48 -21 48 -4 0 -8 6 -8 14 0 15 -55 76 -69 76 -5 0 -16 6 -23 13
-25 24 -96 57 -122 57 -14 0 -26 4 -26 9 0 20 -293 39 -320 21z"/>
<path d="M5254 5045 c-25 -25 -26 -31 -20 -90 3 -34 13 -75 20 -91 8 -16 24
-50 35 -76 21 -48 173 -208 197 -208 7 0 14 -3 16 -7 4 -10 57 -42 81 -50 9
-3 17 -9 17 -14 0 -5 9 -9 20 -9 11 0 20 -4 20 -10 0 -5 7 -10 15 -10 9 0 35
-9 57 -20 23 -11 52 -20 65 -20 13 0 23 -4 23 -10 0 -5 15 -10 33 -10 18 0 37
-4 43 -9 5 -5 29 -12 54 -15 25 -4 81 -12 125 -18 134 -19 454 -11 480 13 5 5
22 9 39 9 16 0 45 5 63 10 18 6 50 15 71 21 20 6 46 14 57 18 11 5 31 13 45
18 39 16 124 57 130 63 3 3 17 11 33 19 15 8 27 18 27 23 0 4 7 8 16 8 20 0
184 165 184 185 0 8 3 15 8 15 8 0 32 49 32 67 0 7 5 13 10 13 6 0 10 15 10
34 0 19 5 38 10 41 6 3 10 25 10 49 0 52 -26 80 -74 80 -46 0 -65 -23 -76 -91
-11 -65 -28 -113 -41 -113 -5 0 -9 -9 -9 -20 0 -11 -4 -20 -10 -20 -5 0 -10
-6 -10 -14 0 -12 -26 -38 -122 -121 -24 -21 -165 -97 -213 -115 -11 -4 -33
-13 -48 -19 -15 -6 -39 -11 -52 -11 -13 0 -26 -4 -29 -9 -12 -19 -191 -40
-336 -40 -147 0 -345 23 -356 40 -3 5 -18 9 -35 9 -16 0 -29 5 -29 10 0 6 -9
10 -20 10 -11 0 -28 4 -38 9 -9 5 -50 24 -89 42 -40 19 -73 37 -73 41 0 5 -6
8 -13 8 -12 0 -29 13 -109 86 -29 26 -53 56 -69 86 -6 13 -15 25 -18 28 -12
10 -31 77 -31 111 0 44 -20 89 -40 89 -8 0 -25 3 -37 6 -16 4 -30 -2 -49 -21z"/>
<path d="M9575 3752 c-16 -9 -31 -20 -33 -24 -2 -5 -10 -8 -18 -8 -8 0 -24 -8
-34 -18 -11 -10 -36 -27 -57 -38 -21 -12 -56 -31 -78 -44 -22 -13 -81 -45
-132 -71 -50 -27 -100 -52 -110 -57 -92 -48 -143 -72 -157 -72 -9 0 -16 -4
-16 -10 0 -5 -9 -10 -20 -10 -11 0 -20 -4 -20 -10 0 -5 -6 -10 -13 -10 -7 0
-32 -9 -55 -20 -22 -11 -48 -20 -57 -20 -8 0 -15 -4 -15 -10 0 -5 -7 -10 -15
-10 -8 0 -34 -8 -58 -19 -23 -10 -58 -24 -77 -31 -44 -15 -68 -24 -100 -38
-14 -6 -43 -16 -65 -23 -22 -6 -48 -15 -57 -20 -10 -5 -27 -9 -37 -9 -11 0
-23 -4 -26 -10 -3 -5 -17 -10 -30 -10 -13 0 -27 -4 -30 -10 -3 -5 -17 -10 -30
-10 -13 0 -26 -4 -29 -9 -6 -8 -18 -11 -108 -27 -21 -3 -38 -10 -38 -14 0 -4
-15 -10 -32 -13 -18 -3 -53 -11 -78 -17 -86 -21 -125 -31 -160 -40 -116 -30
-173 -42 -290 -60 -36 -6 -90 -15 -120 -21 -146 -27 -372 -55 -655 -80 -177
-16 -881 -16 -1065 0 -285 24 -424 41 -660 81 -36 6 -92 15 -125 20 -33 5 -80
14 -105 20 -25 6 -65 15 -90 20 -42 8 -72 15 -167 40 -95 24 -130 32 -160 37
-18 3 -33 9 -33 14 0 5 -13 9 -29 9 -17 0 -33 5 -36 10 -3 6 -22 10 -41 10
-19 0 -34 5 -34 10 0 6 -13 10 -29 10 -17 0 -33 5 -36 10 -3 6 -15 10 -26 10
-11 0 -39 9 -61 20 -23 11 -48 20 -55 20 -23 0 -93 24 -93 32 0 5 -9 8 -19 8
-11 0 -23 5 -26 10 -3 6 -15 10 -26 10 -10 0 -27 4 -37 9 -18 9 -58 26 -102
44 -14 5 -33 13 -42 18 -10 5 -22 9 -28 9 -5 0 -47 18 -92 39 -46 21 -98 45
-115 52 -18 8 -33 17 -33 21 0 5 -6 8 -12 8 -16 0 -182 82 -186 92 -2 5 -12 8
-22 8 -10 0 -20 3 -22 8 -1 4 -22 17 -46 30 -23 12 -61 32 -85 45 -23 12 -48
28 -55 34 -7 7 -30 20 -50 30 -20 9 -39 20 -42 24 -3 4 -18 11 -33 14 -25 7
-36 -1 -112 -79 -46 -47 -97 -103 -112 -124 -15 -20 -40 -49 -55 -64 -16 -14
-28 -30 -28 -35 0 -5 -8 -18 -18 -29 -10 -10 -29 -35 -42 -54 -13 -19 -30 -41
-37 -48 -7 -7 -20 -26 -30 -42 -9 -17 -21 -30 -25 -30 -4 0 -8 -6 -8 -13 0 -7
-9 -23 -20 -35 -11 -12 -20 -28 -20 -37 0 -8 -4 -15 -8 -15 -4 0 -19 -22 -33
-50 -13 -27 -27 -50 -31 -50 -5 0 -8 -9 -8 -20 0 -11 -4 -20 -10 -20 -5 0 -10
-9 -10 -20 0 -11 -3 -20 -7 -20 -5 0 -23 -33 -42 -73 -19 -39 -38 -80 -42 -89
-5 -10 -9 -27 -9 -38 0 -11 -4 -20 -10 -20 -5 0 -10 -7 -10 -15 0 -8 -5 -25
-12 -38 -25 -48 -28 -58 -28 -81 0 -14 -5 -28 -10 -31 -6 -3 -10 -22 -10 -41
0 -19 -4 -34 -9 -34 -5 0 -11 -19 -14 -42 -3 -24 -11 -68 -17 -98 -45 -235
-45 -524 1 -760 5 -30 13 -74 16 -97 3 -24 9 -43 14 -43 5 0 9 -16 9 -35 0
-19 4 -43 9 -53 5 -9 14 -35 20 -57 7 -22 17 -50 22 -62 5 -13 14 -35 20 -50
6 -16 15 -36 20 -45 5 -10 9 -24 9 -31 0 -18 23 -67 33 -67 4 0 7 -7 7 -16 0
-8 7 -22 15 -30 8 -9 18 -27 22 -42 3 -15 9 -29 12 -32 4 -3 17 -26 30 -52 13
-27 27 -48 31 -48 4 0 13 -13 20 -30 7 -16 16 -30 21 -30 5 0 9 -5 9 -11 0
-12 48 -83 77 -114 10 -11 34 -40 53 -65 44 -58 244 -258 290 -290 19 -13 42
-32 51 -42 9 -10 20 -18 25 -18 5 0 25 -14 44 -30 19 -16 39 -30 43 -30 4 0
17 -9 29 -20 12 -11 28 -20 35 -20 7 0 13 -4 13 -9 0 -5 8 -11 18 -14 9 -3 28
-12 42 -20 14 -8 63 -33 110 -56 l85 -41 663 0 c434 0 662 3 662 10 0 6 9 10
20 10 11 0 20 4 20 9 0 5 8 11 18 14 63 21 199 150 232 223 69 152 67 264 -10
494 -17 52 -42 118 -54 145 -13 28 -30 65 -37 83 -8 17 -17 32 -21 32 -5 0 -8
9 -8 20 0 11 -4 20 -10 20 -5 0 -10 9 -10 20 0 11 -4 20 -10 20 -5 0 -10 9
-10 19 0 11 -3 21 -7 23 -7 3 -37 55 -67 115 -6 13 -14 23 -18 23 -5 0 -8 9
-8 20 0 11 -4 20 -10 20 -5 0 -10 9 -10 20 0 11 -3 20 -7 20 -5 0 -13 10 -19
23 -6 12 -41 81 -77 152 -88 174 -117 263 -117 359 0 41 4 78 10 81 6 3 10 13
10 22 0 25 93 109 147 133 26 12 61 28 77 36 16 8 39 14 52 14 13 0 26 5 29
10 3 6 21 10 39 10 17 0 36 4 41 9 6 5 33 12 60 15 28 4 82 11 120 16 217 30
426 35 1355 33 889 -2 1121 -8 1265 -32 103 -18 168 -30 220 -41 28 -6 62 -13
78 -17 15 -3 30 -9 33 -14 3 -5 15 -9 28 -9 12 0 26 -4 32 -8 5 -5 29 -15 54
-22 56 -17 236 -105 256 -125 9 -8 19 -15 23 -15 4 0 19 -10 32 -21 13 -12 40
-33 59 -48 46 -35 100 -88 100 -99 0 -5 9 -17 19 -27 11 -9 38 -55 60 -101 38
-78 41 -90 41 -170 0 -94 -18 -151 -74 -234 -33 -49 -122 -140 -137 -140 -10
0 -198 -185 -214 -211 -5 -9 -29 -44 -52 -77 -24 -34 -43 -63 -43 -67 0 -6
-36 -90 -51 -117 -5 -10 -9 -26 -9 -36 0 -10 -4 -22 -9 -28 -22 -23 -37 -250
-21 -324 19 -88 64 -200 83 -208 4 -2 7 -10 7 -18 0 -8 10 -25 22 -39 l22 -25
829 0 828 0 47 32 c26 17 49 34 52 38 3 3 21 17 40 30 39 27 250 236 250 248
0 4 18 27 40 51 22 24 40 47 40 52 0 4 6 14 13 21 21 22 77 106 77 116 0 6 4
12 8 14 12 4 152 284 152 302 0 9 5 16 10 16 6 0 10 11 10 25 0 14 4 33 9 43
32 63 71 178 71 210 0 11 4 23 9 26 5 3 11 23 14 43 6 35 10 59 38 196 24 122
51 397 52 527 0 66 -9 173 -28 320 -4 25 -10 54 -15 65 -9 21 -18 58 -27 113
-3 18 -9 35 -14 38 -5 3 -9 14 -9 25 0 10 -4 27 -9 37 -9 17 -25 54 -44 102
-5 14 -18 41 -28 61 -11 20 -19 44 -19 53 0 9 -4 16 -10 16 -5 0 -10 9 -10 20
0 11 -4 20 -9 20 -5 0 -14 14 -21 30 -7 17 -16 30 -21 30 -5 0 -9 9 -9 20 0
11 -4 20 -10 20 -5 0 -10 5 -10 11 0 12 -60 103 -72 107 -4 2 -8 9 -8 16 0 7
-8 21 -18 32 -10 10 -29 35 -42 54 -14 19 -40 51 -57 70 -18 19 -33 38 -33 44
0 13 -357 366 -371 366 -6 0 -23 12 -37 28 -28 28 -123 82 -144 82 -7 0 -26
-8 -43 -18z"/>
<path d="M2000 556 c0 -9 -4 -16 -10 -16 -5 0 -10 -7 -10 -15 0 -8 -4 -23 -9
-33 -6 -9 -23 -45 -40 -79 -34 -70 -54 -106 -61 -113 -3 -3 -17 -21 -30 -40
-32 -47 -171 -180 -187 -180 -7 0 -13 -4 -13 -9 0 -5 -13 -14 -30 -21 -16 -7
-30 -16 -30 -20 0 -4 -10 -12 -22 -18 -17 -8 88 -11 400 -11 275 -1 422 2 422
9 0 6 -4 10 -10 10 -5 0 -10 6 -10 13 0 6 -14 28 -30 47 -16 19 -30 41 -30 48
0 6 -4 12 -9 12 -5 0 -14 13 -21 30 -7 17 -16 30 -20 30 -4 0 -13 14 -20 30
-7 17 -16 30 -21 30 -5 0 -9 6 -9 13 0 6 -11 25 -25 41 -13 16 -27 37 -30 47
-4 11 -11 19 -16 19 -5 0 -9 9 -9 20 0 11 -4 20 -10 20 -5 0 -10 9 -10 20 0
11 -4 20 -9 20 -5 0 -13 9 -16 20 -3 11 -12 26 -18 33 -7 7 -17 21 -23 32 -14
25 -34 31 -34 11z"/>
<path d="M10643 323 c-4 -10 -9 -20 -12 -23 -4 -3 -22 -35 -41 -72 -19 -38
-38 -68 -41 -68 -4 0 -12 -13 -19 -30 -7 -16 -16 -30 -21 -30 -5 0 -9 -9 -9
-20 0 -11 -4 -20 -8 -20 -8 0 -32 -43 -32 -55 0 -3 99 -5 220 -5 121 0 220 3
220 6 0 4 -8 14 -18 23 -10 9 -29 32 -42 51 -13 19 -30 41 -37 48 -7 7 -25 34
-40 60 -15 26 -31 49 -35 50 -4 2 -8 12 -8 23 0 10 -3 19 -8 19 -4 0 -13 14
-20 30 -15 33 -39 39 -49 13z"/>
</g>
</svg>
