<?xml version="1.0" standalone="no"?>
<!DOCTYPE svg PUBLIC "-//W3C//DTD SVG 20010904//EN"
 "http://www.w3.org/TR/2001/REC-SVG-20010904/DTD/svg10.dtd">
<svg version="1.0" xmlns="http://www.w3.org/2000/svg"
 width="450.000000pt" height="360.000000pt" viewBox="0 0 450.000000 360.000000"
 preserveAspectRatio="xMidYMid meet">

<g transform="translate(0.000000,360.000000) scale(0.100000,-0.100000)"
fill="#000000" stroke="none">
<path d="M1980 2623 c-8 -3 -25 -15 -37 -26 -22 -19 -23 -28 -23 -162 l0 -142
-171 -79 c-171 -78 -209 -105 -209 -148 0 -11 41 -108 90 -215 50 -107 90
-195 90 -197 0 -2 -171 -4 -380 -4 -331 0 -380 -2 -380 -15 0 -13 51 -15 400
-15 220 0 400 4 400 8 0 5 -43 101 -95 215 -52 114 -95 215 -95 226 0 10 8 25
18 33 9 8 122 63 251 122 262 121 271 122 300 53 l18 -42 -93 -5 c-80 -4 -96
-8 -118 -29 l-26 -24 0 -279 c0 -179 4 -278 10 -278 6 0 10 95 10 265 l0 266
25 24 24 25 261 0 261 0 24 -25 25 -24 0 -266 c0 -170 4 -265 10 -265 6 0 10
99 10 278 l0 279 -26 24 c-22 21 -38 25 -118 29 l-93 5 18 42 c29 69 37 68
300 -53 129 -59 242 -114 252 -122 9 -8 17 -23 17 -33 0 -10 -43 -111 -95
-225 -52 -113 -95 -210 -95 -215 0 -5 164 -8 397 -7 306 2 397 6 401 16 3 9
-77 12 -378 12 -302 0 -381 3 -377 13 3 6 44 96 91 199 47 102 86 195 86 206
0 41 -40 68 -209 146 l-171 79 0 142 c0 139 0 142 -26 166 l-26 24 -266 2
c-147 1 -274 -1 -282 -4z m559 -49 c19 -24 21 -40 21 -147 0 -135 7 -127 -87
-86 -71 31 -104 17 -141 -58 l-26 -53 -57 0 -58 0 -24 53 c-34 75 -69 89 -140
58 -94 -41 -87 -48 -87 83 0 112 8 151 34 168 6 4 131 8 278 8 l267 0 20 -26z"/>
<path d="M2005 2550 c-4 -16 -11 -32 -16 -35 -14 -9 -11 -22 6 -22 8 0 15 6
15 14 0 7 7 13 15 13 8 0 15 -4 15 -10 0 -5 4 -10 9 -10 4 0 3 18 -2 40 -13
47 -33 52 -42 10z m22 -12 c-3 -8 -6 -5 -6 6 -1 11 2 17 5 13 3 -3 4 -12 1
-19z"/>
<path d="M1996 2449 c-17 -34 -14 -49 10 -49 8 0 12 -4 9 -10 -3 -5 -1 -10 4
-10 6 0 11 5 11 10 0 6 7 10 15 10 17 0 19 18 5 54 -13 35 -35 33 -54 -5z"/>
<path d="M2027 2164 c-4 -4 -7 -14 -7 -23 0 -9 -7 -29 -15 -45 -18 -35 -18
-36 0 -36 8 0 15 9 15 20 0 13 7 20 20 20 13 0 20 -7 20 -20 0 -12 7 -20 16
-20 12 0 14 5 9 18 -4 9 -13 33 -20 52 -13 35 -26 46 -38 34z m23 -39 c0 -8
-4 -15 -10 -15 -5 0 -10 7 -10 15 0 8 5 15 10 15 6 0 10 -7 10 -15z"/>
<path d="M2833 2098 c-4 -8 -22 -25 -40 -40 -25 -21 -29 -27 -17 -32 22 -8 26
-8 19 3 -8 13 10 22 29 15 19 -7 22 -34 4 -34 -9 0 -8 -4 2 -10 24 -15 25 -13
27 45 2 54 -8 77 -24 53z m8 -41 c-16 -16 -26 0 -10 19 9 11 15 12 17 4 2 -6
-1 -17 -7 -23z"/>
<path d="M1645 2068 c3 -13 7 -37 8 -54 2 -35 24 -36 23 -1 -1 13 6 23 17 25
10 2 17 -3 17 -12 0 -10 6 -13 15 -10 19 8 20 24 2 24 -8 0 -24 11 -37 25 -30
32 -52 33 -45 3z m34 -1 c6 -8 8 -17 4 -20 -11 -12 -21 -7 -26 13 -6 23 5 26
22 7z"/>
<path d="M2006 2011 c-31 -32 -31 -64 -1 -70 11 -2 23 -8 28 -15 5 -8 9 -8 15
0 4 7 16 13 27 15 30 6 30 38 -1 70 -15 16 -31 29 -34 29 -3 0 -19 -13 -34
-29z"/>
<path d="M2722 1983 c-6 -12 -5 -31 3 -53 11 -31 16 -35 45 -32 47 4 72 20 68
45 -2 15 -11 23 -28 25 -14 2 -29 10 -33 18 -11 20 -44 17 -55 -3z"/>
<path d="M1706 1957 c-10 -36 -7 -43 21 -56 21 -10 28 -9 34 1 18 28 10 56
-20 66 -26 9 -30 8 -35 -11z"/>
<path d="M2168 1790 c-80 -78 -108 -119 -108 -156 0 -12 32 -14 195 -14 190 0
195 0 195 21 0 34 -19 61 -109 149 l-86 85 -87 -85z"/>
<path d="M1650 1581 c-88 -18 -177 -98 -200 -179 -51 -185 73 -361 256 -362
153 0 263 94 280 243 13 112 -53 235 -151 278 -48 21 -136 30 -185 20z m137
-102 c29 -14 52 -35 69 -65 23 -39 26 -53 22 -113 -3 -56 -9 -75 -31 -105 -36
-47 -81 -70 -138 -69 -89 1 -154 64 -166 160 -18 152 113 255 244 192z"/>
<path d="M962 1539 c3 -41 5 -44 33 -44 l30 0 3 -182 2 -183 -35 0 c-36 0 -36
0 -33 -40 2 -22 6 -40 11 -40 4 0 54 0 112 0 l105 0 0 39 c0 37 -2 40 -32 43
-32 3 -33 4 -36 54 l-3 51 76 6 c131 10 180 55 180 167 0 74 -14 103 -68 144
-24 18 -46 21 -188 24 l-160 4 3 -43z m301 -66 c12 -11 17 -31 17 -64 0 -60
-25 -81 -102 -83 l-53 -1 -3 74 c-2 41 -1 80 2 86 6 18 116 8 139 -12z"/>
<path d="M2022 1538 c3 -40 5 -42 33 -43 l30 0 0 -180 0 -180 -32 -3 c-31 -3
-33 -6 -33 -43 l0 -39 110 0 110 0 0 40 c0 38 -2 40 -30 40 l-30 0 0 87 c0 47
2 84 5 81 3 -3 32 -41 65 -84 51 -68 56 -79 39 -82 -15 -3 -19 -12 -19 -43 l0
-39 115 0 115 0 0 40 c0 39 -1 40 -33 40 -25 0 -39 7 -54 28 -11 15 -45 59
-76 97 l-55 71 75 84 c41 47 79 86 84 86 5 1 18 2 29 3 16 1 20 8 20 41 l0 40
-111 0 -110 0 3 -42 c2 -35 6 -42 21 -40 28 5 20 -9 -49 -83 l-64 -70 2 75 3
75 33 3 c30 3 32 6 32 43 l0 39 -116 0 -115 0 3 -42z"/>
<path d="M2550 1541 c0 -37 2 -40 33 -43 l32 -3 3 -182 2 -183 -35 0 c-34 0
-35 -1 -35 -40 l0 -40 225 0 225 0 0 85 0 85 -40 0 -40 0 0 -45 0 -45 -100 0
-100 0 0 75 0 75 95 0 95 0 0 40 0 40 -95 0 -95 0 0 70 0 71 98 -3 97 -3 3
-48 3 -47 37 3 37 2 3 88 3 87 -226 0 -225 0 0 -39z"/>
<path d="M3070 1536 c0 -43 1 -44 33 -42 l32 1 3 -182 2 -183 -35 0 c-34 0
-35 -1 -35 -40 l0 -40 115 0 115 0 0 40 c0 38 -2 40 -30 40 l-30 0 0 80 c0 79
0 80 25 80 23 0 32 -13 83 -119 l57 -120 68 0 67 -1 0 40 c0 39 -1 40 -35 40
-34 0 -36 3 -76 82 -39 77 -40 83 -23 93 69 39 98 108 73 179 -27 77 -79 95
-276 96 l-133 0 0 -44z m272 -45 c45 -2 63 -66 28 -101 -15 -15 -33 -20 -75
-20 l-55 0 0 66 0 65 43 -5 c23 -3 50 -5 59 -5z"/>
<path d="M963 988 c6 -19 2568 -19 2575 0 3 9 -259 12 -1288 12 -1029 0 -1291
-3 -1287 -12z"/>
</g>
</svg>
